<svg width="270" height="290" viewBox="0 0 270 290" fill="none" xmlns="http://www.w3.org/2000/svg">
<rect width="270" height="290" rx="8" fill="black" fill-opacity="0.4"/>
<rect x="71" y="192" width="132" height="50" rx="8" fill="#FA7436"/>
<path d="M101.046 216.574C101.718 216.694 102.288 217.048 102.756 217.636C103.224 218.224 103.458 218.89 103.458 219.634C103.458 220.27 103.29 220.846 102.954 221.362C102.63 221.866 102.156 222.268 101.532 222.568C100.908 222.856 100.182 223 99.354 223H94.35V210.49H99.12C99.972 210.49 100.704 210.634 101.316 210.922C101.928 211.21 102.39 211.6 102.702 212.092C103.014 212.572 103.17 213.112 103.17 213.712C103.17 214.432 102.978 215.032 102.594 215.512C102.21 215.992 101.694 216.346 101.046 216.574ZM96.402 215.746H98.94C99.612 215.746 100.134 215.596 100.506 215.296C100.89 214.984 101.082 214.54 101.082 213.964C101.082 213.4 100.89 212.962 100.506 212.65C100.134 212.326 99.612 212.164 98.94 212.164H96.402V215.746ZM99.174 221.326C99.87 221.326 100.416 221.158 100.812 220.822C101.208 220.486 101.406 220.018 101.406 219.418C101.406 218.806 101.196 218.32 100.776 217.96C100.356 217.6 99.798 217.42 99.102 217.42H96.402V221.326H99.174ZM109.99 223.162C109.054 223.162 108.208 222.952 107.452 222.532C106.696 222.1 106.102 221.5 105.67 220.732C105.238 219.952 105.022 219.052 105.022 218.032C105.022 217.024 105.244 216.13 105.688 215.35C106.132 214.57 106.738 213.97 107.506 213.55C108.274 213.13 109.132 212.92 110.08 212.92C111.028 212.92 111.886 213.13 112.654 213.55C113.422 213.97 114.028 214.57 114.472 215.35C114.916 216.13 115.138 217.024 115.138 218.032C115.138 219.04 114.91 219.934 114.454 220.714C113.998 221.494 113.374 222.1 112.582 222.532C111.802 222.952 110.938 223.162 109.99 223.162ZM109.99 221.38C110.518 221.38 111.01 221.254 111.466 221.002C111.934 220.75 112.312 220.372 112.6 219.868C112.888 219.364 113.032 218.752 113.032 218.032C113.032 217.312 112.894 216.706 112.618 216.214C112.342 215.71 111.976 215.332 111.52 215.08C111.064 214.828 110.572 214.702 110.044 214.702C109.516 214.702 109.024 214.828 108.568 215.08C108.124 215.332 107.77 215.71 107.506 216.214C107.242 216.706 107.11 217.312 107.11 218.032C107.11 219.1 107.38 219.928 107.92 220.516C108.472 221.092 109.162 221.38 109.99 221.38ZM121.468 223.162C120.532 223.162 119.686 222.952 118.93 222.532C118.174 222.1 117.58 221.5 117.148 220.732C116.716 219.952 116.5 219.052 116.5 218.032C116.5 217.024 116.722 216.13 117.166 215.35C117.61 214.57 118.216 213.97 118.984 213.55C119.752 213.13 120.61 212.92 121.558 212.92C122.506 212.92 123.364 213.13 124.132 213.55C124.9 213.97 125.506 214.57 125.95 215.35C126.394 216.13 126.616 217.024 126.616 218.032C126.616 219.04 126.388 219.934 125.932 220.714C125.476 221.494 124.852 222.1 124.06 222.532C123.28 222.952 122.416 223.162 121.468 223.162ZM121.468 221.38C121.996 221.38 122.488 221.254 122.944 221.002C123.412 220.75 123.79 220.372 124.078 219.868C124.366 219.364 124.51 218.752 124.51 218.032C124.51 217.312 124.372 216.706 124.096 216.214C123.82 215.71 123.454 215.332 122.998 215.08C122.542 214.828 122.05 214.702 121.522 214.702C120.994 214.702 120.502 214.828 120.046 215.08C119.602 215.332 119.248 215.71 118.984 216.214C118.72 216.706 118.588 217.312 118.588 218.032C118.588 219.1 118.858 219.928 119.398 220.516C119.95 221.092 120.64 221.38 121.468 221.38ZM132.569 218.05L137.141 223H134.369L130.697 218.734V223H128.645V209.68H130.697V217.42L134.297 213.082H137.141L132.569 218.05ZM153.566 223H151.514L145.34 213.658V223H143.288V210.472H145.34L151.514 219.796V210.472H153.566V223ZM160.562 223.162C159.626 223.162 158.78 222.952 158.024 222.532C157.268 222.1 156.674 221.5 156.242 220.732C155.81 219.952 155.594 219.052 155.594 218.032C155.594 217.024 155.816 216.13 156.26 215.35C156.704 214.57 157.31 213.97 158.078 213.55C158.846 213.13 159.704 212.92 160.652 212.92C161.6 212.92 162.458 213.13 163.226 213.55C163.994 213.97 164.6 214.57 165.044 215.35C165.488 216.13 165.71 217.024 165.71 218.032C165.71 219.04 165.482 219.934 165.026 220.714C164.57 221.494 163.946 222.1 163.154 222.532C162.374 222.952 161.51 223.162 160.562 223.162ZM160.562 221.38C161.09 221.38 161.582 221.254 162.038 221.002C162.506 220.75 162.884 220.372 163.172 219.868C163.46 219.364 163.604 218.752 163.604 218.032C163.604 217.312 163.466 216.706 163.19 216.214C162.914 215.71 162.548 215.332 162.092 215.08C161.636 214.828 161.144 214.702 160.616 214.702C160.088 214.702 159.596 214.828 159.14 215.08C158.696 215.332 158.342 215.71 158.078 216.214C157.814 216.706 157.682 217.312 157.682 218.032C157.682 219.1 157.952 219.928 158.492 220.516C159.044 221.092 159.734 221.38 160.562 221.38ZM181.059 213.082L177.981 223H175.821L173.823 215.674L171.825 223H169.665L166.569 213.082H168.657L170.727 221.056L172.833 213.082H174.975L176.991 221.02L179.043 213.082H181.059Z" fill="white"/>
</svg>
