<svg viewBox="0 0 1000 1000" xml:space="preserve" xmlns="http://www.w3.org/2000/svg" enable-background="new 0 0 1000 1000"><path d="M818.039 180.784H182.215c-16.5 0-30 13.5-30 30v361.46h695.824v-361.46c0-16.5-13.5-30-30-30zm-462.555 37.897h19.143c6.875 0 12.5 5.625 12.5 12.5s-5.625 12.5-12.5 12.5h-19.143c-6.875 0-12.5-5.625-12.5-12.5s5.625-12.5 12.5-12.5zm72.268 93.613c6.875 0 12.5 5.625 12.5 12.5s-5.625 12.5-12.5 12.5H314.609c-6.875 0-12.5-5.625-12.5-12.5s5.625-12.5 12.5-12.5h113.143zm-56.572 66.575c0 6.875-5.625 12.5-12.5 12.5h-44.072c-6.875 0-12.5-5.625-12.5-12.5s5.625-12.5 12.5-12.5h44.072c6.875 0 12.5 5.625 12.5 12.5zm-90.696-160.188h19.143c6.875 0 12.5 5.625 12.5 12.5s-5.625 12.5-12.5 12.5h-19.143c-6.875 0-12.5-5.625-12.5-12.5s5.625-12.5 12.5-12.5zm-11.375 106.113c0 6.875-5.625 12.5-12.5 12.5h-50c-6.875 0-12.5-5.625-12.5-12.5s5.625-12.5 12.5-12.5h50c6.875 0 12.5 5.625 12.5 12.5zm0 54.075c0 6.875-5.625 12.5-12.5 12.5h-16.857c-6.875 0-12.5-5.625-12.5-12.5s5.625-12.5 12.5-12.5h16.857c6.875 0 12.5 5.625 12.5 12.5zm-63.625-160.188h19.143c6.875 0 12.5 5.625 12.5 12.5s-5.625 12.5-12.5 12.5h-19.143c-6.875 0-12.5-5.625-12.5-12.5s5.625-12.5 12.5-12.5zm-11.375 214.264c0-6.875 5.625-12.5 12.5-12.5h117.536c6.875 0 12.5 5.625 12.5 12.5s-5.625 12.5-12.5 12.5H206.609c-6.875 0-12.5-5.625-12.5-12.5zm62.5 66.575h-16.857c-6.875 0-12.5-5.625-12.5-12.5s5.625-12.5 12.5-12.5h16.857c6.875 0 12.5 5.625 12.5 12.5s-5.625 12.5-12.5 12.5zm102.071 0h-44.072c-6.875 0-12.5-5.625-12.5-12.5s5.625-12.5 12.5-12.5h44.072c6.875 0 12.5 5.625 12.5 12.5s-5.625 12.5-12.5 12.5zm143.072 0H420.68c-6.875 0-12.5-5.625-12.5-12.5s5.625-12.5 12.5-12.5h81.071c6.875 0 12.5 5.625 12.5 12.5s-5.624 12.5-12.499 12.5zm0-54.075H383.68c-6.875 0-12.5-5.625-12.5-12.5s5.625-12.5 12.5-12.5h118.071c6.875 0 12.5 5.625 12.5 12.5s-5.624 12.5-12.499 12.5zm0-54.076h-83.536c-6.875 0-12.5-5.625-12.5-12.5s5.625-12.5 12.5-12.5h83.536c6.875 0 12.5 5.625 12.5 12.5s-5.625 12.5-12.5 12.5zm123.257 51.227c4.861 4.861 4.861 12.816 0 17.678-4.861 4.861-12.816 4.861-17.678 0L560.958 413.9c-4.861-4.861-4.861-12.816 0-17.678l46.374-46.374c4.861-4.861 12.816-4.861 17.678 0 4.861 4.861 4.861 12.816 0 17.678l-37.535 37.535 37.534 37.535zm90.189-109.718L672.31 484.067c-1.876 6.614-8.823 10.49-15.437 8.614-6.614-1.876-10.49-8.823-8.614-15.437l42.888-151.189c1.876-6.614 8.823-10.49 15.437-8.614 6.614 1.876 10.49 8.823 8.614 15.437zm87.301 81.022-46.373 46.374c-4.861 4.861-12.816 4.861-17.678 0-4.861-4.861-4.861-12.816 0-17.678l37.535-37.535-37.535-37.535c-4.861-4.861-4.861-12.816 0-17.678 4.862-4.861 12.816-4.861 17.678 0l46.373 46.374c4.861 4.861 4.861 12.816 0 17.678zM610.607 762.063H389.646c-10.197 0-18.539 8.343-18.539 18.539v38.614h258.039v-38.614c0-10.196-8.342-18.539-18.539-18.539z" fill="#1a1818" class="fill-231f20"></path><ellipse cx="500.375" cy="666.877" rx="17.453" ry="17.454" transform="rotate(-4.052 500.456 666.668)" fill="#1a1818" class="fill-231f20"></ellipse><path d="m151.961 598.519.229 62.484c.061 16.5 13.61 29.95 30.11 29.89l102.911-.377.106 28.795c.037 10.196 8.411 18.508 18.607 18.471l392.919-1.439c10.196-.037 18.509-8.41 18.471-18.607l-.105-28.795 102.911-.377c16.5-.06 29.95-13.61 29.89-30.11l-.229-62.484-695.82 2.549zm391.145 71.567a6.708 6.708 0 0 1-6.708 6.708c-.356 0-.702-.036-1.043-.089a36.11 36.11 0 0 1-3.73 8.699c.235.18.464.37.679.585a6.708 6.708 0 0 1 0 9.487l-4.115 4.115a6.708 6.708 0 0 1-9.487 0 6.782 6.782 0 0 1-.758-.914 36.084 36.084 0 0 1-8.084 3.272 6.708 6.708 0 0 1-6.574 8.047h-5.82a6.708 6.708 0 0 1-6.574-8.047 36.073 36.073 0 0 1-8.606-3.565c-.274.451-.598.88-.988 1.27a6.708 6.708 0 0 1-9.487 0l-4.115-4.115a6.708 6.708 0 0 1 0-9.487c.381-.381.8-.7 1.24-.971a36.084 36.084 0 0 1-3.582-8.534 6.691 6.691 0 0 1-1.779.246 6.708 6.708 0 0 1-6.708-6.708v-5.82a6.708 6.708 0 0 1 6.708-6.708c.562 0 1.105.077 1.627.207a36.065 36.065 0 0 1 3.443-8.581 6.66 6.66 0 0 1-1.436-1.087 6.708 6.708 0 0 1 0-9.487l4.115-4.115a6.708 6.708 0 0 1 9.487 0c.366.367.676.767.94 1.189a36.146 36.146 0 0 1 9.141-3.881 6.708 6.708 0 0 1 6.574-8.047h5.82a6.708 6.708 0 0 1 6.574 8.047 36.12 36.12 0 0 1 8.636 3.582c.208-.288.434-.567.694-.827a6.708 6.708 0 0 1 9.487 0l4.115 4.115a6.708 6.708 0 0 1 0 9.487 6.782 6.782 0 0 1-.856.716 36.077 36.077 0 0 1 3.576 8.747 6.66 6.66 0 0 1 .887-.065 6.708 6.708 0 0 1 6.708 6.708v5.821z" fill="#1a1818" class="fill-231f20"></path></svg>