<svg viewBox="0 0 1000 1000" xml:space="preserve" xmlns="http://www.w3.org/2000/svg" enable-background="new 0 0 1000 1000"><path d="M152.231 609.461c0 16.569 13.432 30 30 30H401V646c0 8.58 3.67 16.73 10.08 22.43 11.63 10.35 29.25 31.26 29.92 63.32.2 9.43.12 17.55-.12 24.5h118.24c-.24-6.95-.32-15.07-.12-24.5.67-32.06 18.29-52.97 29.92-63.32A30.002 30.002 0 0 0 599 646v-6.539h218.769c16.568 0 30-13.431 30-30v-24.924H152.231v24.924zM636.803 781.25H363.197c-29.972 0-54.269 24.297-54.269 54.268 0 6.904 5.597 12.5 12.5 12.5h357.144c6.903 0 12.5-5.596 12.5-12.5 0-29.971-24.297-54.268-54.269-54.268zM639.32 285.063h135.13v66.73H639.32zM432.44 285.063h135.12v66.73H432.44zM225.55 285.063h135.13v66.73H225.55z" fill="#1a1919" class="fill-231f20"></path><path d="M817.769 151.982H182.231c-16.568 0-30 13.431-30 30v377.555h695.537V181.982c.001-16.569-13.431-30-29.999-30zm-54.418 41.807h23.596c6.903 0 12.5 5.596 12.5 12.5s-5.597 12.5-12.5 12.5h-23.596c-6.903 0-12.5-5.596-12.5-12.5s5.597-12.5 12.5-12.5zm-266.298 0h23.596c6.903 0 12.5 5.596 12.5 12.5s-5.597 12.5-12.5 12.5h-23.596c-6.903 0-12.5-5.596-12.5-12.5s5.596-12.5 12.5-12.5zm-71 0h23.596c6.903 0 12.5 5.596 12.5 12.5s-5.597 12.5-12.5 12.5h-23.596c-6.903 0-12.5-5.596-12.5-12.5s5.596-12.5 12.5-12.5zm-18.613 78.274c0-6.63 5.37-12 12-12h161.12c6.63 0 12 5.37 12 12v92.73c0 6.62-5.37 12-12 12H419.44c-6.63 0-12-5.38-12-12v-92.73zm-123.387-78.274h23.596c6.903 0 12.5 5.596 12.5 12.5s-5.597 12.5-12.5 12.5h-23.596c-6.903 0-12.5-5.596-12.5-12.5s5.596-12.5 12.5-12.5zm-71 0h23.596c6.903 0 12.5 5.596 12.5 12.5s-5.597 12.5-12.5 12.5h-23.596c-6.903 0-12.5-5.596-12.5-12.5s5.596-12.5 12.5-12.5zM385.677 505.23c0 6.904-5.596 12.5-12.5 12.5H213.053c-6.903 0-12.5-5.596-12.5-12.5v-40.941c0-6.903 5.597-12.5 12.5-12.5h160.124c6.904 0 12.5 5.597 12.5 12.5v40.941zm-12.5-78.441H213.053c-6.903 0-12.5-5.597-12.5-12.5 0-6.904 5.597-12.5 12.5-12.5h160.124c6.904 0 12.5 5.596 12.5 12.5 0 6.903-5.596 12.5-12.5 12.5zm12.503-61.996c0 6.62-5.38 12-12 12H212.55c-6.62 0-12-5.38-12-12v-92.73c0-6.63 5.38-12 12-12h161.13c6.62 0 12 5.37 12 12v92.73zm-7.031-146.004h-23.596c-6.903 0-12.5-5.596-12.5-12.5s5.597-12.5 12.5-12.5h23.596c6.903 0 12.5 5.596 12.5 12.5s-5.597 12.5-12.5 12.5zM592.562 505.23c0 6.904-5.596 12.5-12.5 12.5H419.938c-6.904 0-12.5-5.596-12.5-12.5v-40.941c0-6.903 5.596-12.5 12.5-12.5h160.124c6.904 0 12.5 5.597 12.5 12.5v40.941zm-12.5-78.441H419.938c-6.904 0-12.5-5.597-12.5-12.5 0-6.904 5.596-12.5 12.5-12.5h160.124c6.904 0 12.5 5.596 12.5 12.5 0 6.903-5.596 12.5-12.5 12.5zm219.385 78.441c0 6.904-5.597 12.5-12.5 12.5H626.823c-6.903 0-12.5-5.596-12.5-12.5v-40.941c0-6.903 5.597-12.5 12.5-12.5h160.125c6.903 0 12.5 5.597 12.5 12.5v40.941zm-12.5-78.441H626.823c-6.903 0-12.5-5.597-12.5-12.5 0-6.904 5.597-12.5 12.5-12.5h160.125c6.903 0 12.5 5.596 12.5 12.5-.001 6.903-5.597 12.5-12.501 12.5zm12.503-61.996c0 6.62-5.38 12-12 12H626.32c-6.62 0-12-5.38-12-12v-92.73c0-6.63 5.38-12 12-12h161.13c6.62 0 12 5.37 12 12v92.73z" fill="#1a1919" class="fill-231f20"></path></svg>