<svg viewBox="0 0 32 32" xmlns="http://www.w3.org/2000/svg"><path d="M12 4H6a2 2 0 0 0-2 2v6a2 2 0 0 0 2 2h6a2 2 0 0 0 2-2V6a2 2 0 0 0-2-2Zm0 8H6V6h6ZM26 4h-6a2 2 0 0 0-2 2v6a2 2 0 0 0 2 2h6a2 2 0 0 0 2-2V6a2 2 0 0 0-2-2Zm0 8h-6V6h6ZM12 18H6a2 2 0 0 0-2 2v6a2 2 0 0 0 2 2h6a2 2 0 0 0 2-2v-6a2 2 0 0 0-2-2Zm0 8H6v-6h6ZM26 18h-6a2 2 0 0 0-2 2v6a2 2 0 0 0 2 2h6a2 2 0 0 0 2-2v-6a2 2 0 0 0-2-2Zm0 8h-6v-6h6Z" fill="#2b7373" class="fill-000000"></path><path data-name="Transparent Rectangle" d="M0 0h32v32H0z" fill="none"></path></svg>